<svg width="19" height="21" viewBox="0 0 19 21" fill="none" xmlns="http://www.w3.org/2000/svg">
<path d="M16.3954 16.5671L13.7037 13.6557C14.5722 12.4554 15.0434 10.9732 15.0417 9.44731C15.0417 8.0884 14.6702 6.76001 13.9743 5.63012C13.2784 4.50022 12.2893 3.61958 11.132 3.09955C9.97473 2.57952 8.70131 2.44345 7.47276 2.70856C6.24422 2.97367 5.11572 3.62805 4.22999 4.58894C3.34426 5.54984 2.74107 6.77409 2.49669 8.10689C2.25232 9.43969 2.37774 10.8212 2.8571 12.0766C3.33645 13.3321 4.14821 14.4052 5.18972 15.1601C6.23123 15.9151 7.45572 16.3181 8.70833 16.3181C10.1149 16.32 11.4811 15.8088 12.5875 14.8666L15.2713 17.7867C15.3448 17.8672 15.4324 17.9311 15.5289 17.9747C15.6253 18.0183 15.7288 18.0408 15.8333 18.0408C15.9378 18.0408 16.0413 18.0183 16.1378 17.9747C16.2343 17.9311 16.3218 17.8672 16.3954 17.7867C16.4696 17.7069 16.5285 17.6119 16.5687 17.5072C16.6089 17.4026 16.6296 17.2903 16.6296 17.1769C16.6296 17.0636 16.6089 16.9513 16.5687 16.8466C16.5285 16.742 16.4696 16.647 16.3954 16.5671V16.5671ZM3.95833 9.44731C3.95833 8.42813 4.23692 7.43183 4.75885 6.58442C5.28079 5.737 6.02264 5.07651 6.89059 4.68649C7.75854 4.29646 8.7136 4.19442 9.63501 4.39325C10.5564 4.59208 11.4028 5.08286 12.0671 5.80354C12.7314 6.52421 13.1838 7.4424 13.3671 8.442C13.5503 9.4416 13.4563 10.4777 13.0968 11.4193C12.7372 12.3609 12.1284 13.1657 11.3473 13.7319C10.5662 14.2982 9.64779 14.6004 8.70833 14.6004C7.44855 14.6004 6.24037 14.0575 5.34958 13.0911C4.45878 12.1247 3.95833 10.814 3.95833 9.44731Z" fill="white"/>
</svg>
